<?xml version="1.0" encoding="UTF-8" standalone="no"?><svg width="1685" height="294" viewBox="0 0 1685 294" version="1.1" xmlns="http://www.w3.org/2000/svg" xmlns:xlink="http://www.w3.org/1999/xlink" xml:space="preserve" xmlns:serif="http://www.serif.com/" style="fill-rule:evenodd;clip-rule:evenodd;stroke-linejoin:round;stroke-miterlimit:2;"><g><path d="M231.858,232.944c-42.573,-25.151 -103.832,-48.417 -152.382,-54.474c-2.51,-0.318 -4.978,-0.583 -7.395,-0.807c-5.182,-0.469 -10.2,-0.714 -14.984,-0.734c-1.734,0 -3.427,0.02 -5.09,0.081c-1.682,0.062 -3.314,0.143 -4.916,0.266c-3.06,0.245 -6.741,0.51 -10.383,1.091c-2.478,0.407 -4.946,0.948 -7.18,1.724c7.221,-0.072 15.483,2.417 24.234,6.65c4.212,2.031 8.527,4.478 12.913,7.231c20.389,12.831 42.023,32.516 59.066,50.172c2.764,2.836 5.385,5.641 7.864,8.334c5.141,5.599 11.628,13.208 15.86,18.368l0.102,0c8.099,-0.173 16.014,-1.152 23.663,-2.814l-5.425,-4.927c-5.631,-5.018 -12.087,-10.699 -18.931,-16.575l-0.02,0c-5.009,-4.293 -10.22,-8.669 -15.463,-12.972c-12.607,-10.303 -25.438,-20.105 -36.087,-26.765c-8.609,-5.375 -17.656,-11.505 -27.6,-16.605c-5.069,-2.642 -10.383,-4.997 -15.973,-6.864l0,-0.02c-5.334,-1.775 -10.934,-3.111 -16.839,-3.785c5.059,-0.55 10.404,-0.672 15.942,-0.439c0.132,0 0.234,0 0.347,0.01c0.785,0.042 1.56,0.073 2.345,0.133c0.827,0.042 1.663,0.113 2.51,0.185c3.957,0.315 8.027,0.805 12.178,1.457c2.998,0.46 6.038,1.01 9.118,1.654c48.633,9.902 105.903,38.625 143.52,61.656c0.132,0.082 0.254,0.153 0.377,0.215c3.927,-3.081 7.65,-6.407 11.169,-9.925c-0.827,-0.521 -1.683,-1.021 -2.54,-1.521Zm-144.325,-165.242c8.925,-6.253 10.812,-18.992 7.119,-24.286c-3.692,-5.273 -11.577,-1.111 -20.511,5.141c-8.955,6.253 -15.555,12.23 -11.862,17.512c3.702,5.305 16.299,7.885 25.254,1.633Zm-14.483,87.491l22.673,7.947l-24.398,-18.207l3.581,-13.749l-41.768,39.463l1.122,1.284l25.194,-16.942l-1.857,11.577l15.453,-11.373Zm26.029,-71.029c3.519,-2.448 4.366,-7.263 1.918,-10.761c-2.439,-3.508 -7.252,-4.365 -10.761,-1.917c-3.488,2.437 -4.345,7.272 -1.918,10.77c2.438,3.489 7.263,4.345 10.761,1.908Zm59.678,34.709l32.292,13.34l-43.705,-37.757l-39.3,35.851l27.366,-11.434l11.934,14.371l11.413,-14.371Zm47.102,-36.596c2.468,-3.489 1.621,-8.292 -1.866,-10.761c-3.489,-2.438 -8.323,-1.601 -10.792,1.887c-2.437,3.488 -1.591,8.313 1.887,10.761c3.519,2.468 8.323,1.611 10.771,-1.887Zm26.01,-16.208c3.692,-5.282 -2.908,-11.259 -11.843,-17.512c-8.934,-6.283 -16.809,-10.434 -20.511,-5.171c-3.723,5.293 -1.836,18.012 7.099,24.295c8.925,6.253 21.552,3.662 25.255,-1.612Zm-4.693,83.842l26.274,11.515l-33.78,-30.11l-45.96,28.855l5.365,1.02l22.633,-11.781l6.048,14.963l19.42,-14.462Zm29.049,0.887c6.425,-7.335 10.363,-16.983 10.363,-27.213c0,-21.552 -17.473,-39.034 -39.034,-39.034c-12.046,0 -22.837,5.468 -29.988,14.065c-3.977,-6.762 -10.158,-12.055 -17.563,-14.891c3.744,-5.987 5.895,-13.045 5.895,-20.614c0,-21.551 -17.481,-39.033 -39.034,-39.033c-21.572,0 -39.033,17.482 -39.033,39.033c0,7.589 2.162,14.658 5.905,20.644c-7.384,2.877 -13.555,8.181 -17.513,14.953c-7.16,-8.639 -17.972,-14.157 -30.069,-14.157c-21.562,0 -39.033,17.482 -39.033,39.034c0,11.474 4.947,21.786 12.82,28.926c16.351,-15.677 36.189,-34.107 36.189,-34.107l16.452,10.362l54.762,-50.161l57.302,49.488l15.024,-9.689c0,0 21.337,19.012 36.555,32.394Zm37.483,-4.04l-0.561,6.222l-0.326,0.072c-0.133,0.02 -0.224,0.06 -0.346,0.081c-4.815,1.397 -8.517,4.509 -9.71,8.231c-0.174,0.52 -0.287,1.061 -0.347,1.602c-0.398,3.091 1.04,6.426 3.702,9.129c0.663,0.652 1.387,1.274 2.172,1.845c0.521,0.377 1.082,0.746 1.663,1.072c0.133,0.08 0.234,0.142 0.347,0.192l0.316,0.184l-1.621,6.243l-0.347,0.031c-0.031,0 -0.092,0 -0.123,0.01c-5.794,0.499 -10.557,3.61 -11.903,7.812l-0.031,0.062c0.011,0.01 0.011,0.03 0.011,0.03c-0.99,2.968 -0.266,6.497 1.774,9.658c0.439,0.664 0.928,1.307 1.459,1.918c0.551,0.623 1.152,1.204 1.795,1.775c0.031,0.011 0.051,0.042 0.061,0.042c0.02,0.02 0.02,0.02 0.031,0.02l0.265,0.234l0.02,0l-2.376,6.018l-0.378,-0.062c-0.102,-0.02 -0.214,-0.02 -0.326,-0.029c-4.222,-0.48 -8.18,0.479 -10.843,2.539c-0.397,0.316 -0.774,0.642 -1.11,1.009c-0.521,0.552 -0.959,1.133 -1.307,1.755c-0.03,0.052 -0.061,0.093 -0.071,0.153c-0.112,0.194 -0.194,0.387 -0.285,0.591c-0.092,0.246 -0.194,0.511 -0.286,0.765c-1.224,3.744 -0.03,8.487 3.101,12.444c0.04,0.062 0.091,0.122 0.153,0.183l0.183,0.256l0.02,0.01l-1.968,3.285l-1.223,2.059l-0.378,-0.132c-0.214,-0.072 -0.388,-0.132 -0.612,-0.213c-0.439,-0.145 -0.888,-0.266 -1.326,-0.369c-0.887,-0.213 -1.786,-0.336 -2.643,-0.418c-0.897,-0.061 -1.763,-0.061 -2.61,0.021c-0.287,0.01 -0.55,0.041 -0.817,0.092l-0.03,0l-0.02,0c-0.235,0.03 -0.448,0.082 -0.674,0.122c-0.387,0.081 -0.764,0.174 -1.131,0.286c-0.122,0.03 -0.245,0.071 -0.357,0.121c-0.235,0.063 -0.469,0.164 -0.694,0.256c-0.296,0.102 -0.581,0.244 -0.867,0.389c-0.999,0.539 -1.897,1.212 -2.621,2.048c-0.755,0.888 -1.346,1.939 -1.744,3.153c-1.051,3.263 -0.592,7.241 1.254,10.984c0.041,0.072 0.082,0.153 0.113,0.235l0.142,0.295l-4.487,4.631l-0.317,-0.183c-0.122,-0.062 -0.265,-0.143 -0.408,-0.224c-5.079,-2.794 -10.709,-2.856 -14.167,-0.144c-0.173,0.144 -0.336,0.287 -0.51,0.439c-0.163,0.163 -0.326,0.316 -0.479,0.49c-0.47,0.52 -0.877,1.081 -1.244,1.723c-0.358,0.634 -0.664,1.306 -0.909,2.03c-0.111,0.337 -0.193,0.673 -0.264,1.022c-0.102,0.396 -0.163,0.784 -0.225,1.192c-0.092,0.674 -0.143,1.366 -0.143,2.08l0,0.04c0,0.756 0.062,1.541 0.164,2.306c0.102,0.805 0.265,1.592 0.479,2.397c0.021,0.041 0.03,0.092 0.051,0.153c0.02,0.061 0.031,0.122 0.051,0.194l0.102,0.296l-4.162,3.416l-0.143,-0.132l-0.152,-0.143l0,-0.021c-0.113,-0.102 -0.235,-0.213 -0.348,-0.315c-0.122,-0.091 -0.254,-0.204 -0.377,-0.306c-0.907,-0.755 -1.866,-1.387 -2.845,-1.907c-0.969,-0.51 -1.979,-0.929 -2.968,-1.225c-2.713,-0.815 -5.426,-0.725 -7.65,0.378c-1.754,0.878 -3.233,2.407 -4.264,4.385c-0.367,0.653 -0.663,1.377 -0.917,2.132c-0.123,0.399 -0.235,0.806 -0.327,1.224c-0.347,1.571 -0.489,3.284 -0.398,4.998l0,0.02c0.031,0.072 0.02,0.183 0.02,0.276l0,0.102l0.031,0.305l-5.936,2.561l-0.224,-0.296c-0.041,-0.062 -0.092,-0.122 -0.143,-0.185c-0.061,-0.059 -0.102,-0.141 -0.153,-0.203c-0.377,-0.47 -0.765,-0.917 -1.183,-1.304c-0.102,-0.113 -0.205,-0.205 -0.296,-0.317c-0.092,-0.092 -0.204,-0.205 -0.316,-0.296c-3.417,-3.192 -7.66,-4.6 -11.209,-3.621c-0.908,0.276 -1.775,0.683 -2.591,1.244c-0.296,0.195 -0.582,0.408 -0.846,0.642l-0.021,0.021c-0.173,0.154 -0.347,0.296 -0.5,0.469c-1.489,1.459 -2.703,3.439 -3.468,5.783c-0.367,1.102 -0.622,2.245 -0.744,3.458c-0.01,0.062 -0.031,0.122 -0.031,0.203l-0.031,0.318l-6.058,1.489l-0.163,-0.337c-0.082,-0.163 -0.174,-0.326 -0.255,-0.479c-2.591,-5.14 -7.171,-8.394 -11.536,-8.088c-1.122,0.071 -2.203,0.377 -3.254,0.877c-0.52,0.255 -1.04,0.551 -1.53,0.897c-0.499,0.347 -0.968,0.735 -1.428,1.174c-0.234,0.203 -0.469,0.439 -0.673,0.672c-0.224,0.235 -0.428,0.48 -0.642,0.745c-0.408,0.5 -0.806,1.03 -1.163,1.612c-0.704,1.162 -1.316,2.468 -1.795,3.866l-0.031,0.091l-0.071,0.224l-6.426,0.082l-0.112,-0.347c0.021,-0.02 -0.02,-0.05 -0.02,-0.072c-0.378,-1.437 -0.908,-2.783 -1.571,-3.998c-0.674,-1.224 -1.459,-2.325 -2.336,-3.232c-1.755,-1.836 -3.876,-3.03 -6.11,-3.285c-2.825,-0.346 -5.844,0.826 -8.404,3.091c-0.235,0.203 -0.459,0.407 -0.673,0.631c-1.082,1.072 -2.071,2.358 -2.907,3.816l-0.031,0.05l-0.051,0.072l-0.01,0l-5.233,-0.827l-1.479,-0.253l-0.009,0l0,-0.186c-0.082,-1.529 -0.337,-2.988 -0.745,-4.334c-0.204,-0.684 -0.439,-1.326 -0.725,-1.948c-0.693,-1.54 -1.601,-2.897 -2.682,-3.978c-1.071,-1.082 -2.305,-1.896 -3.672,-2.356c-4.304,-1.418 -9.822,0.673 -13.698,5.202l-0.082,0.123l-1.652,-0.408l-3.203,-0.735l0.061,-0.631l0.061,-0.583c0.041,-0.326 0.072,-0.673 0.103,-0.999c0.244,-4.386 -1.122,-8.424 -3.611,-10.833c-0.275,-0.244 -0.541,-0.5 -0.837,-0.713c-0.143,-0.114 -0.295,-0.224 -0.459,-0.306c-0.142,-0.103 -0.295,-0.205 -0.448,-0.276c-0.52,-0.285 -1.061,-0.52 -1.622,-0.713c-0.377,-0.122 -0.775,-0.215 -1.183,-0.286c-0.388,-0.062 -0.785,-0.103 -1.193,-0.132c-2.153,-0.133 -4.509,0.387 -6.762,1.498c-0.817,0.397 -1.623,0.888 -2.408,1.439c-0.387,0.265 -0.785,0.561 -1.163,0.877l-0.153,0.092l-0.142,0.133l-3.397,-2.55l-1.754,-1.306l0.112,-0.327c1.785,-5.589 0.704,-11.28 -2.703,-14.126c-3.457,-2.865 -9.251,-2.887 -14.483,-0.041c-0.031,0.01 -0.061,0.031 -0.112,0.062l-0.327,0.174l-4.008,-4.765l0.051,-0.061l0.102,-0.214c0.642,-1.102 1.153,-2.264 1.53,-3.427c1.346,-4.161 0.907,-8.261 -1.214,-10.953c-0.49,-0.614 -1.071,-1.154 -1.714,-1.643c-0.153,-0.133 -0.326,-0.235 -0.5,-0.347c-0.499,-0.327 -1.071,-0.613 -1.652,-0.846c-0.388,-0.174 -0.785,-0.318 -1.204,-0.429l-0.02,0c-0.316,-0.092 -0.622,-0.173 -0.959,-0.235c-1.744,-0.378 -3.661,-0.429 -5.62,-0.122c-0.846,0.122 -1.724,0.316 -2.59,0.581l-0.061,0.031l-0.307,0.082l-3.294,-5.549l0.061,-0.082l0.153,-0.173c0.193,-0.215 0.377,-0.438 0.551,-0.674c0.368,-0.458 0.694,-0.908 0.989,-1.397c0.449,-0.724 0.857,-1.458 1.183,-2.202c0.225,-0.5 0.419,-1.001 0.582,-1.5c0.214,-0.684 0.388,-1.357 0.5,-2.02c0.316,-1.897 0.173,-3.702 -0.388,-5.294c-0.133,-0.337 -0.275,-0.682 -0.439,-0.999c-2.08,-3.947 -7.353,-6.181 -13.228,-5.609c-0.092,0 -0.194,0.01 -0.255,0.01l-0.387,0.072l-1.286,-4.948l-0.071,-0.255l0.234,-0.184c0.684,-0.519 1.306,-1.091 1.887,-1.672c0.582,-0.582 1.102,-1.203 1.571,-1.838c0.469,-0.62 0.897,-1.283 1.244,-1.967c0.357,-0.673 0.663,-1.357 0.877,-2.049c0.194,-0.573 0.316,-1.132 0.408,-1.684c0.235,-1.376 0.174,-2.714 -0.153,-3.935c-0.163,-0.542 -0.367,-1.074 -0.632,-1.582l0,-0.01c-0.184,-0.379 -0.418,-0.735 -0.674,-1.103l-0.02,-0.01c-0.235,-0.368 -0.509,-0.693 -0.816,-1.019c-0.183,-0.225 -0.408,-0.45 -0.642,-0.653c-0.215,-0.214 -0.449,-0.408 -0.694,-0.612c-0.734,-0.591 -1.55,-1.113 -2.448,-1.572c-1.173,-0.592 -2.509,-1.08 -3.906,-1.376c-0.347,-0.082 -0.714,-0.142 -1.071,-0.204c-0.357,-0.061 -0.724,-0.092 -1.102,-0.142l-0.357,-0.052l-0.03,0l-0.092,-0.653l-0.806,-5.722l0.296,-0.173c0.47,-0.235 0.949,-0.499 1.387,-0.785c0.438,-0.266 0.857,-0.551 1.265,-0.867c0.408,-0.296 0.785,-0.612 1.162,-0.939l0.021,0c0.357,-0.326 0.704,-0.673 1.04,-1.02c0.174,-0.173 0.327,-0.357 0.47,-0.531c0.449,-0.55 0.866,-1.12 1.223,-1.712c0.49,-0.776 0.868,-1.591 1.133,-2.418c0.173,-0.54 0.295,-1.091 0.377,-1.622c0.092,-0.663 0.112,-1.304 0.061,-1.948c-0.03,-0.286 -0.061,-0.56 -0.122,-0.837c-0.479,-2.499 -2.091,-4.844 -4.478,-6.67c-1.05,-0.816 -2.264,-1.53 -3.6,-2.091c-0.663,-0.286 -1.346,-0.53 -2.071,-0.734l-0.234,-0.103l-0.143,-0.03l0.143,-1.632l0.418,-4.569l0,-0.01l0.295,-0.082c3.112,-0.816 5.804,-2.386 7.65,-4.365c0.378,-0.397 0.724,-0.806 1.031,-1.224c0.468,-0.653 0.846,-1.326 1.121,-2.019c0.113,-0.236 0.194,-0.47 0.276,-0.704c0.03,-0.082 0.041,-0.174 0.061,-0.266c0.061,-0.173 0.112,-0.347 0.143,-0.519c0.061,-0.266 0.102,-0.531 0.132,-0.796c0.398,-3.193 -1.091,-6.599 -3.875,-9.333c-0.459,-0.459 -0.938,-0.877 -1.459,-1.275c-0.775,-0.612 -1.632,-1.173 -2.55,-1.662l-0.326,-0.174l1.601,-6.232l0.02,0l0.347,-0.041c5.845,-0.438 10.679,-3.59 12.056,-7.813l0.031,-0.102l0,-0.01c1.366,-4.223 -0.704,-9.628 -5.151,-13.412l-0.275,-0.244l2.366,-5.977l0.377,0.06c5.936,0.765 11.393,-1.345 13.576,-5.273c0.265,-0.489 0.479,-1.009 0.673,-1.509c1.224,-3.805 -0.02,-8.659 -3.263,-12.627l-0.215,-0.286l1.418,-2.356l1.775,-2.989l0.295,0.092l0.082,0.051c5.202,1.837 10.496,1.194 13.617,-1.57c0.265,-0.255 0.52,-0.5 0.754,-0.765c0.398,-0.449 0.745,-0.949 1.041,-1.469c0.275,-0.531 0.53,-1.091 0.734,-1.693c1.071,-3.325 0.571,-7.395 -1.367,-11.22l-0.142,-0.306l0.193,-0.204l4.274,-4.416l0.265,0.143l0.081,0.04c0.674,0.398 1.368,0.745 2.051,1.04c0.693,0.287 1.387,0.531 2.081,0.735c0.683,0.194 1.376,0.337 2.07,0.449c0.357,0.041 0.703,0.092 1.051,0.102c0.367,0.031 0.724,0.031 1.081,0.031c0.265,0 0.54,-0.011 0.805,-0.031c0.439,-0.031 0.868,-0.072 1.275,-0.153c0.704,-0.123 1.398,-0.326 2.04,-0.602c0.378,-0.173 0.755,-0.336 1.102,-0.551c0.357,-0.204 0.683,-0.438 1.019,-0.683c1.398,-1.101 2.479,-2.724 3.112,-4.672c0.887,-2.763 0.877,-6.088 -0.081,-9.353l-0.032,-0.04l-0.061,-0.266l4.141,-3.406l0.286,0.285c0.143,0.123 0.296,0.214 0.459,0.358l0.561,0.468c0.755,0.602 1.54,1.133 2.346,1.571c0.387,0.245 0.796,0.439 1.203,0.612c3.366,1.53 6.886,1.714 9.629,0.347c0.867,-0.438 1.662,-1.02 2.387,-1.775c0.234,-0.213 0.468,-0.479 0.693,-0.764c0.877,-1.102 1.571,-2.438 2.07,-3.948c0.133,-0.408 0.256,-0.816 0.347,-1.234c0.194,-0.806 0.317,-1.632 0.378,-2.488c0.061,-0.704 0.081,-1.408 0.051,-2.122c0,-0.205 -0.02,-0.408 -0.031,-0.622l0,-0.164l-0.051,-0.305l5.936,-2.581l0.204,0.296c0.092,0.102 0.164,0.173 0.235,0.285c0.378,0.47 0.755,0.908 1.163,1.346c0.408,0.429 0.815,0.827 1.244,1.184c1.072,0.907 2.213,1.663 3.397,2.234c0.469,0.234 0.938,0.417 1.407,0.581c0.327,0.122 0.664,0.214 0.98,0.296c0.306,0.081 0.611,0.142 0.918,0.183c0.958,0.164 1.917,0.174 2.835,0.072c0.408,-0.051 0.786,-0.133 1.163,-0.245c0.102,-0.031 0.204,-0.061 0.296,-0.102c0.204,-0.061 0.408,-0.143 0.612,-0.225c0.296,-0.122 0.591,-0.264 0.877,-0.418c2.499,-1.367 4.528,-4.028 5.64,-7.405c0.347,-1.101 0.613,-2.264 0.735,-3.457c0.02,-0.062 0.02,-0.133 0.041,-0.183l0.03,-0.348l0.01,0l6.049,-1.489l0.142,0.347c0.092,0.184 0.184,0.347 0.286,0.51c2.59,5.13 7.17,8.343 11.505,8.058c0.816,-0.041 1.653,-0.235 2.438,-0.531c0.805,-0.295 1.57,-0.703 2.316,-1.224c2.458,-1.693 4.548,-4.528 5.711,-7.976c0,-0.031 0.02,-0.082 0.031,-0.102l0.112,-0.326l6.436,-0.082l0.082,0.337c0.02,0.061 0.03,0.112 0.05,0.153c0.011,0.061 0.041,0.092 0.061,0.163c1.571,5.65 5.528,9.761 9.925,10.302c4.253,0.489 9.016,-2.448 11.872,-7.334l0.612,-0.255l1.438,0.388l3.998,1.091l0.031,0.174c0.133,1.897 0.54,3.692 1.163,5.304c1.387,3.549 3.866,6.221 6.885,7.159c4.335,1.368 9.781,-0.846 13.585,-5.456l0.113,-0.133l1.57,0.612l3.866,1.479l0,0.235c-0.653,5.701 1.468,10.985 5.253,13.096c0.347,0.194 0.693,0.347 1.071,0.51c0.724,0.275 1.51,0.469 2.305,0.561c0.418,0.051 0.826,0.061 1.245,0.061c0.744,0 1.509,-0.061 2.274,-0.215l0.041,0c0.387,-0.06 0.775,-0.163 1.173,-0.285c0.398,-0.112 0.785,-0.234 1.172,-0.378c1.184,-0.438 2.366,-1.04 3.509,-1.784c0.377,-0.255 0.755,-0.52 1.112,-0.806c0.163,-0.112 0.306,-0.224 0.438,-0.326l0.286,-0.235l5.171,3.846l-0.091,0.326c-0.052,0.142 -0.082,0.255 -0.133,0.377c-0.235,0.837 -0.418,1.662 -0.552,2.499c-0.672,4.59 0.542,8.874 3.367,11.25c3.263,2.714 8.69,2.866 13.678,0.449c0.295,-0.153 0.612,-0.306 0.897,-0.469l0.357,-0.174l3.999,4.764l-0.194,0.296c-0.093,0.173 -0.174,0.397 -0.266,0.571c-0.489,0.918 -0.928,1.876 -1.224,2.825c-1.366,4.172 -0.907,8.271 1.204,10.975c0.235,0.316 0.51,0.602 0.786,0.867c0.285,0.265 0.601,0.53 0.917,0.764c0.643,0.48 1.368,0.868 2.153,1.194c2.681,1.122 6.079,1.305 9.515,0.439c0.296,-0.072 0.613,-0.133 0.898,-0.235l0.347,-0.102l3.295,5.559l-0.225,0.235c-0.091,0.091 -0.163,0.203 -0.245,0.295c-0.081,0.092 -0.143,0.204 -0.224,0.296c-0.153,0.204 -0.316,0.408 -0.449,0.612c-1.04,1.448 -1.877,3.009 -2.377,4.58c-0.989,3.029 -0.846,5.966 0.348,8.291c1.947,3.724 6.752,5.917 12.188,5.682l0.031,0c0.428,-0.011 0.816,-0.04 1.254,-0.081l0.398,-0.041l1.346,5.181l-0.245,0.204c-0.193,0.143 -0.367,0.286 -0.54,0.439c-0.296,0.255 -0.592,0.499 -0.877,0.775c-1.968,1.866 -3.427,4.049 -4.182,6.312c-0.153,0.501 -0.275,1 -0.357,1.51c-0.02,0.072 -0.031,0.154 -0.051,0.235c-0.071,0.5 -0.102,0.999 -0.102,1.509l0,0.164c0,0.245 0.01,0.489 0.041,0.724c0.02,0.306 0.061,0.602 0.123,0.887c0.04,0.184 0.081,0.388 0.142,0.571c0.643,2.346 2.356,4.407 4.743,5.875c0.397,0.255 0.805,0.49 1.234,0.694l0.01,0.021c0.428,0.204 0.868,0.407 1.316,0.581c0,0 0.02,0 0.02,0.01c0.429,0.163 0.847,0.306 1.285,0.428c0.082,0.031 0.164,0.041 0.235,0.082c0.459,0.122 0.928,0.235 1.397,0.326c0.347,0.061 0.714,0.123 1.061,0.174c0.214,0.041 0.469,0.081 0.703,0.112l0.358,0.031l0.918,6.374l-0.306,0.154c-0.153,0.081 -0.296,0.162 -0.418,0.234c-0.673,0.368 -1.326,0.775 -1.918,1.204c-0.407,0.296 -0.785,0.591 -1.152,0.887c-0.184,0.163 -0.358,0.316 -0.541,0.49c-0.173,0.152 -0.347,0.316 -0.51,0.489c-1.469,1.489 -2.56,3.182 -3.141,4.987c-0.174,0.49 -0.286,0.98 -0.357,1.47c-0.133,0.703 -0.164,1.407 -0.092,2.1c0.204,2.417 1.499,4.743 3.549,6.63c0.327,0.316 0.684,0.612 1.061,0.908c0.398,0.306 0.785,0.571 1.214,0.837c1.101,0.703 2.356,1.284 3.692,1.744c0.255,0.081 0.52,0.173 0.755,0.235l0.387,0.111Z" style="fill:#292d2f;fill-rule:nonzero;"/><path d="M485.319,76.471l-19.852,141.808l-34.845,0l8.103,-57.331l-44.162,0l-8.104,57.331l-34.439,0l19.853,-141.808l34.439,0l-7.495,53.482l44.162,0l7.497,-53.482l34.843,0Z" style="fill:#292d2f;fill-rule:nonzero;"/><path d="M553.791,114.962l-18.03,42.947l23.703,0l-5.673,-42.947Zm25.12,-38.491l24.918,141.808l-35.654,0l-4.255,-29.779l-41.124,0l-12.763,29.779l-35.25,0l64.22,-141.808l39.908,0Z" style="fill:#292d2f;fill-rule:nonzero;"/><path d="M696.609,114.151c0,-2.431 -1.823,-5.672 -7.698,-5.672l-26.133,0l-4.862,35.25l26.134,0c6.077,0 8.711,-3.647 9.319,-6.28c1.417,-5.673 3.24,-17.018 3.24,-23.298Zm-63.813,-37.68l61.18,0c25.324,0 36.871,13.169 36.871,31.4c0,6.888 -2.23,22.284 -4.255,32.211c-4.254,20.461 -17.625,35.249 -46.392,35.249l-26.74,0l-6.077,42.948l-34.44,0l19.853,-141.808Z" style="fill:#292d2f;fill-rule:nonzero;"/><path d="M812.89,114.151c0,-2.431 -1.823,-5.672 -7.699,-5.672l-26.132,0l-4.863,35.25l26.134,0c6.077,0 8.711,-3.647 9.319,-6.28c1.418,-5.673 3.241,-17.018 3.241,-23.298Zm-63.814,-37.68l61.18,0c25.324,0 36.871,13.169 36.871,31.4c0,6.888 -2.23,22.284 -4.255,32.211c-4.254,20.461 -17.625,35.249 -46.392,35.249l-26.741,0l-6.076,42.948l-34.439,0l19.852,-141.808Z" style="fill:#292d2f;fill-rule:nonzero;"/><path d="M915.29,128.764l24.249,-52.293l37.882,0l-68.879,141.808l-40.166,0l27.27,-55.752l-50.917,-86.056l39.707,0l30.854,52.293Z" style="fill:#292d2f;fill-rule:nonzero;"/><path d="M1049.13,114.354c0,-3.039 -2.22,-5.875 -7.9,-5.875l-25.73,0l-4.65,33.224l25.719,0c6.081,0 9.321,-3.849 9.931,-6.888c1.42,-7.293 2.63,-15.396 2.63,-20.461Zm-26.54,58.952l-16.2,0l-6.28,44.973l-34.44,0l19.852,-141.808l61.388,0c25.32,0 36.46,13.371 36.46,31.603c0,7.293 -1.82,18.03 -3.65,28.767c-4.45,26.336 -22.48,31.4 -22.48,31.4l21.88,50.038l-39.51,0l-17.02,-44.973Z" style="fill:#292d2f;fill-rule:nonzero;"/><path d="M1123.88,218.279l-34.64,0l19.86,-141.808l34.64,0l-19.86,141.808Z" style="fill:#292d2f;fill-rule:nonzero;"/><path d="M1195.8,108.479l-10.94,77.995l19.24,0c13.98,0 22.49,-7.293 24.11,-16.004c2.43,-12.358 6.49,-39.504 6.49,-47.81c0,-7.901 -7.1,-14.181 -19.66,-14.181l-19.24,0Zm-29.78,-32.008l53.48,0c31.2,0 50.65,17.828 50.65,41.732c0,9.116 -3.85,34.642 -6.89,52.672c-4.46,26.74 -26.94,47.404 -63.61,47.404l-53.48,0l19.85,-141.808Z" style="fill:#292d2f;fill-rule:nonzero;"/><path d="M1396.56,76.471l-4.46,32.008l-66.85,0l-3.04,22.082l61.18,0l-4.26,29.982l-61.18,0l-3.64,25.931l68.67,0l-4.45,31.805l-103.32,0l19.85,-141.808l101.5,0Z" style="fill:#292d2f;fill-rule:nonzero;"/><path d="M1404.05,187.082l31.2,0l-4.46,31.197l-31.2,0l4.46,-31.197Z" style="fill:#292d2f;fill-rule:nonzero;"/><path d="M1554.36,110.505c0,0 -22.48,-4.254 -43.75,-4.254c-11.55,0 -20.47,3.646 -20.47,11.75c0,18.637 65.24,5.875 65.24,50.24c0,33.021 -20.46,52.065 -61.79,52.065c-25.53,0 -49.03,-6.281 -49.03,-6.281l6.08,-30.995c0,0 26.74,5.874 44.16,5.874c18.24,0 25.73,-4.254 25.73,-13.167c0,-20.462 -64.82,-6.078 -64.82,-50.848c0,-35.249 26.53,-50.443 57.53,-50.443c23.09,0 46.59,5.267 46.59,5.267l-5.47,30.792Z" style="fill:#292d2f;fill-rule:nonzero;"/><path d="M1684.42,76.471l-4.46,32.008l-66.85,0l-3.04,22.082l61.18,0l-4.25,29.982l-61.18,0l-3.65,25.931l68.68,0l-4.46,31.805l-103.32,0l19.86,-141.808l101.49,0Z" style="fill:#292d2f;fill-rule:nonzero;"/></g></svg>